<?xml version="1.0" ?><!DOCTYPE svg  PUBLIC '-//W3C//DTD SVG 1.1//EN'  'http://www.w3.org/Graphics/SVG/1.1/DTD/svg11.dtd'><svg enable-background="new 0 0 841.891 595.279" height="595.279px" id="Layer_1" version="1.1" viewBox="0 0 841.891 595.279" width="841.891px" xml:space="preserve" xmlns="http://www.w3.org/2000/svg" xmlns:xlink="http://www.w3.org/1999/xlink"><path d="M715.769,296.719  c0,162.826-132.003,294.819-294.827,294.819S126.125,459.545,126.125,296.719c0-162.829,131.994-294.827,294.817-294.827  C583.766,1.893,715.769,133.891,715.769,296.719z" fill="#FFFFFF" stroke="#C6C6C6" stroke-miterlimit="10" stroke-width="2"/><g id="F39dVb.tif"><g><path d="M300.363,184.749c0-18.706,0-37.409,0-56.115c4.047,0,8.092,0,12.14,0    c0.325,0.131,0.668,0.141,1.011,0.153c5.646,0.179,11.274,0.637,16.889,1.205c6.49,0.657,12.948,1.555,19.382,2.641    c14.134,2.387,28.01,5.812,41.629,10.269c26.025,8.518,50.377,20.465,73.051,35.821c17.83,12.075,34.152,25.922,48.96,41.561    c9.251,9.771,17.8,20.12,25.643,31.054c11.631,16.21,21.508,33.428,29.627,51.653c8.051,18.079,14.193,36.792,18.431,56.124    c1.625,7.416,2.968,14.886,3.99,22.413c0.54,3.967,1.026,7.94,1.393,11.93c0.395,4.292,0.86,8.579,0.885,12.896    c0.002,0.414,0.087,0.829,0.135,1.243c0,4.732,0,9.467,0,14.201c-18.704,0-37.41,0-56.114,0c-0.019-0.421-0.055-0.84-0.055-1.26    c0.018-4.352-0.184-8.693-0.43-13.038c-0.262-4.686-0.676-9.357-1.238-14.015c-0.88-7.234-2.074-14.417-3.614-21.544    c-4.056-18.775-10.297-36.794-18.747-54.04c-9.291-18.956-20.91-36.364-34.834-52.234c-11.93-13.598-25.221-25.701-39.903-36.268    c-21.247-15.291-44.383-26.781-69.434-34.402c-10.344-3.147-20.855-5.565-31.538-7.239c-4.937-0.773-9.889-1.409-14.868-1.862    c-4.673-0.426-9.349-0.767-14.042-0.889c-2.479-0.064-4.955-0.243-7.437-0.189C300.969,184.826,300.668,184.775,300.363,184.749z" fill="#C6C6C6"/><path d="M300.363,228.266c2.403-0.163,4.81-0.114,7.207,0.034c1.903,0.118,3.81,0.182,5.713,0.3    c4.837,0.307,9.653,0.813,14.449,1.489c8.927,1.261,17.729,3.133,26.386,5.654c28.275,8.234,53.385,22.195,75.338,41.806    c17.275,15.436,31.35,33.409,42.228,53.873c9.423,17.729,15.886,36.482,19.46,56.232c0.964,5.329,1.687,10.695,2.183,16.093    c0.505,5.513,0.82,11.03,0.865,16.565c0.003,0.493-0.043,0.989-0.065,1.483c-18.858,0-37.713,0-56.57,0    c-0.01-0.458-0.033-0.916-0.03-1.374c0.021-3.78-0.202-7.551-0.548-11.31c-0.469-5.089-1.216-10.145-2.25-15.153    c-2.759-13.36-7.385-26.032-13.93-38.001c-7.352-13.447-16.738-25.299-28.05-35.627c-10.913-9.961-23.1-17.983-36.602-23.989    c-13.244-5.891-27.076-9.58-41.504-11.047c-4.749-0.482-9.505-0.719-14.278-0.689    C300.363,265.827,300.363,247.047,300.363,228.266z" fill="#C6C6C6"/><path d="M300.363,378.512c0.391-0.729,0.396-1.547,0.527-2.333c2.688-16.034,15.611-29.411,32.459-31.993    c11.825-1.813,22.422,1.233,31.556,8.966c7.459,6.317,11.941,14.416,13.326,24.096c2.234,15.623-5.064,30.82-18.904,39.033    c-6.248,3.709-13.036,5.414-20.312,5.393c-17.947-0.052-34.245-13.048-37.946-31.344c-0.225-1.117-0.217-2.284-0.707-3.345    C300.363,384.161,300.363,381.335,300.363,378.512z" fill="#C6C6C6"/></g></g></svg>